<?xml version="1.0" encoding="utf-8"?>
<svg version="1.1" xmlns:xlink="http://www.w3.org/1999/xlink" width="300px" height="170px" xmlns="http://www.w3.org/2000/svg">
  <g transform="matrix(1 0 0 1 -1230 -160 )">
    <path d="M 1230 160  L 1530 160  L 1530 330  L 1230 330  L 1230 160  " fill-rule="nonzero" fill="#cccccc" stroke="none" />
    <path d="M 1242 172  L 1518 172  L 1518 318  L 1242 318  L 1242 172  " fill-rule="nonzero" fill="#ffffff" stroke="none" />
    <path d="M 1398.75 211  C 1391.61 211  1386 205.39  1386 198.25  C 1386 191.11  1391.61 185.5  1398.75 185.5  C 1405.89 185.5  1411.5 191.11  1411.5 198.25  C 1411.5 205.39  1405.89 211  1398.75 211  " fill-rule="nonzero" fill="#cccccc" stroke="none" />
    <path d="M 1247 314  L 1247 238.65  L 1313.75 204.4  L 1407.2 267.42  L 1460.6 224.95  L 1514 267.42  L 1514 314  L 1247 314  " fill-rule="nonzero" fill="#169bd5" stroke="none" />
  </g>
</svg>