<?xml version="1.0" encoding="utf-8"?>
<svg version="1.1" xmlns:xlink="http://www.w3.org/1999/xlink" width="108px" height="108px" xmlns="http://www.w3.org/2000/svg">
  <defs>
    <filter x="658px" y="18px" width="108px" height="108px" filterUnits="userSpaceOnUse" id="filter2904">
      <feOffset dx="5" dy="5" in="SourceAlpha" result="shadowOffsetInner" />
      <feGaussianBlur stdDeviation="2.5" in="shadowOffsetInner" result="shadowGaussian" />
      <feComposite in2="shadowGaussian" operator="atop" in="SourceAlpha" result="shadowComposite" />
      <feColorMatrix type="matrix" values="0 0 0 0 0  0 0 0 0 0  0 0 0 0 0  0 0 0 0.349019607843137 0  " in="shadowComposite" />
    </filter>
    <g id="widget2905">
      <path d="M 707 28  C 728.84 28  746 45.16  746 67  C 746 88.84  728.84 106  707 106  C 685.16 106  668 88.84  668 67  C 668 45.16  685.16 28  707 28  Z " fill-rule="nonzero" fill="#ffffff" stroke="none" />
      <path d="M 707 23.5  C 731.36 23.5  750.5 42.64  750.5 67  C 750.5 91.36  731.36 110.5  707 110.5  C 682.64 110.5  663.5 91.36  663.5 67  C 663.5 42.64  682.64 23.5  707 23.5  Z " stroke-width="11" stroke="#4b7902" fill="none" />
    </g>
  </defs>
  <g transform="matrix(1 0 0 1 -658 -18 )">
    <use xlink:href="#widget2905" filter="url(#filter2904)" />
    <use xlink:href="#widget2905" />
  </g>
</svg>