<?xml version="1.0" encoding="utf-8"?>
<svg version="1.1" xmlns:xlink="http://www.w3.org/1999/xlink" width="108px" height="108px" xmlns="http://www.w3.org/2000/svg">
  <defs>
    <filter x="530px" y="18px" width="108px" height="108px" filterUnits="userSpaceOnUse" id="filter2906">
      <feOffset dx="5" dy="5" in="SourceAlpha" result="shadowOffsetInner" />
      <feGaussianBlur stdDeviation="2.5" in="shadowOffsetInner" result="shadowGaussian" />
      <feComposite in2="shadowGaussian" operator="atop" in="SourceAlpha" result="shadowComposite" />
      <feColorMatrix type="matrix" values="0 0 0 0 0  0 0 0 0 0  0 0 0 0 0  0 0 0 0.349019607843137 0  " in="shadowComposite" />
    </filter>
    <g id="widget2907">
      <path d="M 579 34  C 597.48 34  612 48.52  612 67  C 612 85.48  597.48 100  579 100  C 560.52 100  546 85.48  546 67  C 546 48.52  560.52 34  579 34  Z " fill-rule="nonzero" fill="#ffffff" stroke="none" />
      <path d="M 579 26.5  C 601.68 26.5  619.5 44.32  619.5 67  C 619.5 89.68  601.68 107.5  579 107.5  C 556.32 107.5  538.5 89.68  538.5 67  C 538.5 44.32  556.32 26.5  579 26.5  Z " stroke-width="17" stroke="#4b7902" fill="none" />
    </g>
  </defs>
  <g transform="matrix(1 0 0 1 -530 -18 )">
    <use xlink:href="#widget2907" filter="url(#filter2906)" />
    <use xlink:href="#widget2907" />
  </g>
</svg>