<?xml version="1.0" encoding="utf-8"?>
<svg version="1.1" xmlns:xlink="http://www.w3.org/1999/xlink" width="108px" height="108px" xmlns="http://www.w3.org/2000/svg">
  <defs>
    <filter x="143px" y="18px" width="108px" height="108px" filterUnits="userSpaceOnUse" id="filter2652">
      <feOffset dx="5" dy="5" in="SourceAlpha" result="shadowOffsetInner" />
      <feGaussianBlur stdDeviation="2.5" in="shadowOffsetInner" result="shadowGaussian" />
      <feComposite in2="shadowGaussian" operator="atop" in="SourceAlpha" result="shadowComposite" />
      <feColorMatrix type="matrix" values="0 0 0 0 0  0 0 0 0 0  0 0 0 0 0  0 0 0 0.349019607843137 0  " in="shadowComposite" />
    </filter>
    <g id="widget2653">
      <path d="M 192 27  C 214.4 27  232 44.6  232 67  C 232 89.4  214.4 107  192 107  C 169.6 107  152 89.4  152 67  C 152 44.6  169.6 27  192 27  Z " fill-rule="nonzero" fill="#ffffff" stroke="none" />
      <path d="M 192 23  C 216.64 23  236 42.36  236 67  C 236 91.64  216.64 111  192 111  C 167.36 111  148 91.64  148 67  C 148 42.36  167.36 23  192 23  Z " stroke-width="10" stroke="#4b7902" fill="none" />
    </g>
  </defs>
  <g transform="matrix(1 0 0 1 -143 -18 )">
    <use xlink:href="#widget2653" filter="url(#filter2652)" />
    <use xlink:href="#widget2653" />
  </g>
</svg>