<?xml version="1.0" encoding="utf-8"?>
<svg version="1.1" xmlns:xlink="http://www.w3.org/1999/xlink" width="112px" height="137px" xmlns="http://www.w3.org/2000/svg">
  <g transform="matrix(1 0 0 1 -744 -100 )">
    <path d="M 744 100  L 856 100  L 856 237  L 744 237  L 744 100  " fill-rule="nonzero" fill="#cccccc" stroke="none" />
    <path d="M 752 108  L 848 108  L 848 229  L 752 229  L 752 108  " fill-rule="nonzero" fill="#ffffff" stroke="none" />
    <path d="M 810.64 137.35  C 805.936 137.35  802.24 133.654  802.24 128.95  C 802.24 124.246  805.936 120.55  810.64 120.55  C 815.344 120.55  819.04 124.246  819.04 128.95  C 819.04 133.654  815.344 137.35  810.64 137.35  " fill-rule="nonzero" fill="#cccccc" stroke="none" />
    <path d="M 755 226  L 755 162.75  L 777.5 134  L 809 157  L 827 151.25  L 845 157  L 845 226  L 755 226  " fill-rule="nonzero" fill="#169bd5" stroke="none" />
  </g>
</svg>