<?xml version="1.0" encoding="utf-8"?>
<svg version="1.1" xmlns:xlink="http://www.w3.org/1999/xlink" width="124px" height="61px" xmlns="http://www.w3.org/2000/svg">
  <defs>
    <mask fill="white" id="clip2634">
      <path d="M 123 0  L 0 0  L 0 60  L 123 60  L 123 0  Z " fill-rule="evenodd" />
    </mask>
  </defs>
  <g transform="matrix(1 0 0 1 -351 -1087 )">
    <path d="M 123 0  L 0 0  L 0 60  L 123 60  L 123 0  Z " fill-rule="nonzero" fill="#ffffff" stroke="none" transform="matrix(1 0 0 1 351 1087 )" />
    <path d="M 123 0  L 0 0  L 0 60  L 123 60  L 123 0  Z " stroke-width="2" stroke="#797979" fill="none" transform="matrix(1 0 0 1 351 1087 )" mask="url(#clip2634)" />
    <path d="M 12.5 0  L 12.5 60  M 110.5 0  L 110.5 60  " stroke-width="1" stroke="#797979" fill="none" transform="matrix(1 0 0 1 351 1087 )" mask="url(#clip2634)" />
  </g>
</svg>