<?xml version="1.0" encoding="utf-8"?>
<svg version="1.1" xmlns:xlink="http://www.w3.org/1999/xlink" width="110px" height="70px" xmlns="http://www.w3.org/2000/svg">
  <g transform="matrix(1 0 0 1 -593 -410 )">
    <path d="M 603.5 479.5  L 702.5 479.5  L 702.5 420.5  L 697.5 420.5  L 697.5 415.5  L 692.5 415.5  L 692.5 410.5  L 593.5 410.5  L 593.5 469.5  L 598.5 469.5  L 598.5 474.5  L 603.5 474.5  L 603.5 479.5  Z " fill-rule="nonzero" fill="#ffffff" stroke="none" />
    <path d="M 603.5 479.5  L 702.5 479.5  L 702.5 420.5  L 697.5 420.5  L 697.5 415.5  L 692.5 415.5  L 692.5 410.5  L 593.5 410.5  L 593.5 469.5  L 598.5 469.5  L 598.5 474.5  L 603.5 474.5  L 603.5 479.5  Z " stroke-width="1" stroke="#797979" fill="none" />
    <path d="M 697.5 421  L 697.5 474.5  L 604 474.5  M 692.5 416  L 692.5 469.5  L 599 469.5  " stroke-width="1" stroke="#797979" fill="none" />
  </g>
</svg>