<?xml version="1.0" encoding="utf-8"?>
<svg version="1.1" xmlns:xlink="http://www.w3.org/1999/xlink" width="108px" height="108px" xmlns="http://www.w3.org/2000/svg">
  <defs>
    <filter x="2200px" y="1070px" width="108px" height="108px" filterUnits="userSpaceOnUse" id="filter2666">
      <feOffset dx="5" dy="5" in="SourceAlpha" result="shadowOffsetInner" />
      <feGaussianBlur stdDeviation="2.5" in="shadowOffsetInner" result="shadowGaussian" />
      <feComposite in2="shadowGaussian" operator="atop" in="SourceAlpha" result="shadowComposite" />
      <feColorMatrix type="matrix" values="0 0 0 0 0  0 0 0 0 0  0 0 0 0 0  0 0 0 0.349019607843137 0  " in="shadowComposite" />
    </filter>
    <g id="widget2667">
      <path d="M 2249 1079  C 2271.4 1079  2289 1096.6  2289 1119  C 2289 1141.4  2271.4 1159  2249 1159  C 2226.6 1159  2209 1141.4  2209 1119  C 2209 1096.6  2226.6 1079  2249 1079  Z " fill-rule="nonzero" fill="#ffffff" stroke="none" />
      <path d="M 2249 1075  C 2273.64 1075  2293 1094.36  2293 1119  C 2293 1143.64  2273.64 1163  2249 1163  C 2224.36 1163  2205 1143.64  2205 1119  C 2205 1094.36  2224.36 1075  2249 1075  Z " stroke-width="10" stroke="#ffff00" fill="none" />
    </g>
  </defs>
  <g transform="matrix(1 0 0 1 -2200 -1070 )">
    <use xlink:href="#widget2667" filter="url(#filter2666)" />
    <use xlink:href="#widget2667" />
  </g>
</svg>