<?xml version="1.0" encoding="utf-8"?>
<svg version="1.1" xmlns:xlink="http://www.w3.org/1999/xlink" width="108px" height="108px" xmlns="http://www.w3.org/2000/svg">
  <defs>
    <filter x="1943px" y="1070px" width="108px" height="108px" filterUnits="userSpaceOnUse" id="filter2668">
      <feOffset dx="5" dy="5" in="SourceAlpha" result="shadowOffsetInner" />
      <feGaussianBlur stdDeviation="2.5" in="shadowOffsetInner" result="shadowGaussian" />
      <feComposite in2="shadowGaussian" operator="atop" in="SourceAlpha" result="shadowComposite" />
      <feColorMatrix type="matrix" values="0 0 0 0 0  0 0 0 0 0  0 0 0 0 0  0 0 0 0.349019607843137 0  " in="shadowComposite" />
    </filter>
    <g id="widget2669">
      <path d="M 1992 1080  C 2013.84 1080  2031 1097.16  2031 1119  C 2031 1140.84  2013.84 1158  1992 1158  C 1970.16 1158  1953 1140.84  1953 1119  C 1953 1097.16  1970.16 1080  1992 1080  Z " fill-rule="nonzero" fill="#ffffff" stroke="none" />
      <path d="M 1992 1075.5  C 2016.36 1075.5  2035.5 1094.64  2035.5 1119  C 2035.5 1143.36  2016.36 1162.5  1992 1162.5  C 1967.64 1162.5  1948.5 1143.36  1948.5 1119  C 1948.5 1094.64  1967.64 1075.5  1992 1075.5  Z " stroke-width="11" stroke="#d9001b" fill="none" />
    </g>
  </defs>
  <g transform="matrix(1 0 0 1 -1943 -1070 )">
    <use xlink:href="#widget2669" filter="url(#filter2668)" />
    <use xlink:href="#widget2669" />
  </g>
</svg>