<?xml version="1.0" encoding="utf-8"?>
<svg version="1.1" xmlns:xlink="http://www.w3.org/1999/xlink" width="108px" height="108px" xmlns="http://www.w3.org/2000/svg">
  <defs>
    <filter x="2715px" y="1070px" width="108px" height="108px" filterUnits="userSpaceOnUse" id="filter2918">
      <feOffset dx="5" dy="5" in="SourceAlpha" result="shadowOffsetInner" />
      <feGaussianBlur stdDeviation="2.5" in="shadowOffsetInner" result="shadowGaussian" />
      <feComposite in2="shadowGaussian" operator="atop" in="SourceAlpha" result="shadowComposite" />
      <feColorMatrix type="matrix" values="0 0 0 0 0  0 0 0 0 0  0 0 0 0 0  0 0 0 0.349019607843137 0  " in="shadowComposite" />
    </filter>
    <g id="widget2919">
      <path d="M 2764 1080  C 2785.84 1080  2803 1097.16  2803 1119  C 2803 1140.84  2785.84 1158  2764 1158  C 2742.16 1158  2725 1140.84  2725 1119  C 2725 1097.16  2742.16 1080  2764 1080  Z " fill-rule="nonzero" fill="#ffffff" stroke="none" />
      <path d="M 2764 1075.5  C 2788.36 1075.5  2807.5 1094.64  2807.5 1119  C 2807.5 1143.36  2788.36 1162.5  2764 1162.5  C 2739.64 1162.5  2720.5 1143.36  2720.5 1119  C 2720.5 1094.64  2739.64 1075.5  2764 1075.5  Z " stroke-width="11" stroke="#ffff00" fill="none" />
    </g>
  </defs>
  <g transform="matrix(1 0 0 1 -2715 -1070 )">
    <use xlink:href="#widget2919" filter="url(#filter2918)" />
    <use xlink:href="#widget2919" />
  </g>
</svg>