<?xml version="1.0" encoding="utf-8"?>
<svg version="1.1" xmlns:xlink="http://www.w3.org/1999/xlink" width="108px" height="108px" xmlns="http://www.w3.org/2000/svg">
  <defs>
    <filter x="1718px" y="302px" width="108px" height="108px" filterUnits="userSpaceOnUse" id="filter918">
      <feOffset dx="5" dy="5" in="SourceAlpha" result="shadowOffsetInner" />
      <feGaussianBlur stdDeviation="2.5" in="shadowOffsetInner" result="shadowGaussian" />
      <feComposite in2="shadowGaussian" operator="atop" in="SourceAlpha" result="shadowComposite" />
      <feColorMatrix type="matrix" values="0 0 0 0 0  0 0 0 0 0  0 0 0 0 0  0 0 0 0.349019607843137 0  " in="shadowComposite" />
    </filter>
    <g id="widget919">
      <path d="M 1767 312  C 1788.84 312  1806 329.16  1806 351  C 1806 372.84  1788.84 390  1767 390  C 1745.16 390  1728 372.84  1728 351  C 1728 329.16  1745.16 312  1767 312  Z " fill-rule="nonzero" fill="#ffffff" stroke="none" />
      <path d="M 1767 307.5  C 1791.36 307.5  1810.5 326.64  1810.5 351  C 1810.5 375.36  1791.36 394.5  1767 394.5  C 1742.64 394.5  1723.5 375.36  1723.5 351  C 1723.5 326.64  1742.64 307.5  1767 307.5  Z " stroke-width="11" stroke="#ffff00" fill="none" />
    </g>
  </defs>
  <g transform="matrix(1 0 0 1 -1718 -302 )">
    <use xlink:href="#widget919" filter="url(#filter918)" />
    <use xlink:href="#widget919" />
  </g>
</svg>