<?xml version="1.0" encoding="utf-8"?>
<svg version="1.1" xmlns:xlink="http://www.w3.org/1999/xlink" width="108px" height="108px" xmlns="http://www.w3.org/2000/svg">
  <defs>
    <filter x="1590px" y="302px" width="108px" height="108px" filterUnits="userSpaceOnUse" id="filter920">
      <feOffset dx="5" dy="5" in="SourceAlpha" result="shadowOffsetInner" />
      <feGaussianBlur stdDeviation="2.5" in="shadowOffsetInner" result="shadowGaussian" />
      <feComposite in2="shadowGaussian" operator="atop" in="SourceAlpha" result="shadowComposite" />
      <feColorMatrix type="matrix" values="0 0 0 0 0  0 0 0 0 0  0 0 0 0 0  0 0 0 0.349019607843137 0  " in="shadowComposite" />
    </filter>
    <g id="widget921">
      <path d="M 1639 318  C 1657.48 318  1672 332.52  1672 351  C 1672 369.48  1657.48 384  1639 384  C 1620.52 384  1606 369.48  1606 351  C 1606 332.52  1620.52 318  1639 318  Z " fill-rule="nonzero" fill="#ffffff" stroke="none" />
      <path d="M 1639 310.5  C 1661.68 310.5  1679.5 328.32  1679.5 351  C 1679.5 373.68  1661.68 391.5  1639 391.5  C 1616.32 391.5  1598.5 373.68  1598.5 351  C 1598.5 328.32  1616.32 310.5  1639 310.5  Z " stroke-width="17" stroke="#ffff00" fill="none" />
    </g>
  </defs>
  <g transform="matrix(1 0 0 1 -1590 -302 )">
    <use xlink:href="#widget921" filter="url(#filter920)" />
    <use xlink:href="#widget921" />
  </g>
</svg>