<?xml version="1.0" encoding="utf-8"?>
<svg version="1.1" xmlns:xlink="http://www.w3.org/1999/xlink" width="108px" height="108px" xmlns="http://www.w3.org/2000/svg">
  <defs>
    <filter x="1203px" y="302px" width="108px" height="108px" filterUnits="userSpaceOnUse" id="filter922">
      <feOffset dx="5" dy="5" in="SourceAlpha" result="shadowOffsetInner" />
      <feGaussianBlur stdDeviation="2.5" in="shadowOffsetInner" result="shadowGaussian" />
      <feComposite in2="shadowGaussian" operator="atop" in="SourceAlpha" result="shadowComposite" />
      <feColorMatrix type="matrix" values="0 0 0 0 0  0 0 0 0 0  0 0 0 0 0  0 0 0 0.349019607843137 0  " in="shadowComposite" />
    </filter>
    <g id="widget923">
      <path d="M 1252 311  C 1274.4 311  1292 328.6  1292 351  C 1292 373.4  1274.4 391  1252 391  C 1229.6 391  1212 373.4  1212 351  C 1212 328.6  1229.6 311  1252 311  Z " fill-rule="nonzero" fill="#ffffff" stroke="none" />
      <path d="M 1252 307  C 1276.64 307  1296 326.36  1296 351  C 1296 375.64  1276.64 395  1252 395  C 1227.36 395  1208 375.64  1208 351  C 1208 326.36  1227.36 307  1252 307  Z " stroke-width="10" stroke="#ffff00" fill="none" />
    </g>
  </defs>
  <g transform="matrix(1 0 0 1 -1203 -302 )">
    <use xlink:href="#widget923" filter="url(#filter922)" />
    <use xlink:href="#widget923" />
  </g>
</svg>