<?xml version="1.0" encoding="utf-8"?>
<svg version="1.1" xmlns:xlink="http://www.w3.org/1999/xlink" width="108px" height="108px" xmlns="http://www.w3.org/2000/svg">
  <defs>
    <filter x="1075px" y="302px" width="108px" height="108px" filterUnits="userSpaceOnUse" id="filter924">
      <feOffset dx="5" dy="5" in="SourceAlpha" result="shadowOffsetInner" />
      <feGaussianBlur stdDeviation="2.5" in="shadowOffsetInner" result="shadowGaussian" />
      <feComposite in2="shadowGaussian" operator="atop" in="SourceAlpha" result="shadowComposite" />
      <feColorMatrix type="matrix" values="0 0 0 0 0  0 0 0 0 0  0 0 0 0 0  0 0 0 0.349019607843137 0  " in="shadowComposite" />
    </filter>
    <g id="widget925">
      <path d="M 1124 311  C 1146.4 311  1164 328.6  1164 351  C 1164 373.4  1146.4 391  1124 391  C 1101.6 391  1084 373.4  1084 351  C 1084 328.6  1101.6 311  1124 311  Z " fill-rule="nonzero" fill="#ffffff" stroke="none" />
      <path d="M 1124 307  C 1148.64 307  1168 326.36  1168 351  C 1168 375.64  1148.64 395  1124 395  C 1099.36 395  1080 375.64  1080 351  C 1080 326.36  1099.36 307  1124 307  Z " stroke-width="10" stroke="#4b7902" fill="none" />
    </g>
  </defs>
  <g transform="matrix(1 0 0 1 -1075 -302 )">
    <use xlink:href="#widget925" filter="url(#filter924)" />
    <use xlink:href="#widget925" />
  </g>
</svg>