<?xml version="1.0" encoding="utf-8"?>
<svg version="1.1" xmlns:xlink="http://www.w3.org/1999/xlink" width="546px" height="278px" xmlns="http://www.w3.org/2000/svg">
  <g transform="matrix(1 0 0 1 -174 -125 )">
    <path d="M 174 125  L 720 125  L 720 403  L 174 403  L 174 125  " fill-rule="nonzero" fill="#cccccc" stroke="none" />
    <path d="M 193 144  L 701 144  L 701 384  L 193 384  L 193 144  " fill-rule="nonzero" fill="#ffffff" stroke="none" />
    <path d="M 478.77 208.4  C 467.094 208.4  457.92 199.226  457.92 187.55  C 457.92 175.874  467.094 166.7  478.77 166.7  C 490.446 166.7  499.62 175.874  499.62 187.55  C 499.62 199.226  490.446 208.4  478.77 208.4  " fill-rule="nonzero" fill="#cccccc" stroke="none" />
    <path d="M 200 377  L 200 252.7  L 323.5 196.2  L 496.4 307.958241758242  L 595.2 230.1  L 694 307.958241758242  L 694 377  L 200 377  " fill-rule="nonzero" fill="#169bd5" stroke="none" />
  </g>
</svg>