<?xml version="1.0" encoding="utf-8"?>
<svg version="1.1" xmlns:xlink="http://www.w3.org/1999/xlink" width="16px" height="16px" xmlns="http://www.w3.org/2000/svg">
  <g transform="matrix(1 0 0 1 -449 -602 )">
    <path d="M 457 603  C 460.92 603  464 606.08  464 610  C 464 613.92  460.92 617  457 617  C 453.08 617  450 613.92  450 610  C 450 606.08  453.08 603  457 603  Z " fill-rule="nonzero" fill="#ffffff" stroke="none" fill-opacity="0" />
    <path d="M 457 603  C 460.92 603  464 606.08  464 610  C 464 613.92  460.92 617  457 617  C 453.08 617  450 613.92  450 610  C 450 606.08  453.08 603  457 603  Z " stroke-width="2" stroke="#ffffff" fill="none" />
  </g>
</svg>