<?xml version="1.0" encoding="utf-8"?>
<svg version="1.1" xmlns:xlink="http://www.w3.org/1999/xlink" width="701px" height="370px" xmlns="http://www.w3.org/2000/svg">
  <g transform="matrix(1 0 0 1 -106 -83 )">
    <path d="M 106 83  L 807 83  L 807 453  L 106 453  L 106 83  " fill-rule="nonzero" fill="#cccccc" stroke="none" />
    <path d="M 132 109  L 781 109  L 781 427  L 132 427  L 132 109  " fill-rule="nonzero" fill="#ffffff" stroke="none" />
    <path d="M 498.27 194  C 482.73 194  470.52 181.79  470.52 166.25  C 470.52 150.71  482.73 138.5  498.27 138.5  C 513.81 138.5  526.02 150.71  526.02 166.25  C 526.02 181.79  513.81 194  498.27 194  " fill-rule="nonzero" fill="#cccccc" stroke="none" />
    <path d="M 142 418  L 142 253.55  L 299.5 178.8  L 520 323.309557774608  L 646 223.65  L 772 323.309557774608  L 772 418  L 142 418  " fill-rule="nonzero" fill="#169bd5" stroke="none" />
  </g>
</svg>